<svg xmlns="http://www.w3.org/2000/svg" xmlns:xlink="http://www.w3.org/1999/xlink" viewBox="0 0 1607.26 1450.52"><defs><style>.cls-1{fill:none;}.cls-2{fill:url(#New_Gradient_Swatch_1_copy);}.cls-3{fill:url(#New_Gradient_Swatch_1_copy-2);}.cls-4{fill:url(#New_Gradient_Swatch_1_copy-3);}.cls-5{fill:url(#New_Gradient_Swatch_1_copy-4);}.cls-6{fill:url(#New_Gradient_Swatch_1_copy-5);}.cls-7{fill:url(#New_Gradient_Swatch_1_copy-6);}.cls-8{fill:#002223;}</style><linearGradient id="New_Gradient_Swatch_1_copy" x1="636.3" y1="1339.18" x2="1857.2" y2="202.55" gradientUnits="userSpaceOnUse"><stop offset="0" stop-color="#003780"/><stop offset="1" stop-color="#bb30da"/></linearGradient><linearGradient id="New_Gradient_Swatch_1_copy-2" x1="411.54" y1="1097.76" x2="1632.44" y2="-38.87" xlink:href="#New_Gradient_Swatch_1_copy"/><linearGradient id="New_Gradient_Swatch_1_copy-3" x1="501.96" y1="1306.91" x2="50.72" y2="-544.57" xlink:href="#New_Gradient_Swatch_1_copy"/><linearGradient id="New_Gradient_Swatch_1_copy-4" x1="431.32" y1="1324.13" x2="-19.91" y2="-527.35" xlink:href="#New_Gradient_Swatch_1_copy"/><linearGradient id="New_Gradient_Swatch_1_copy-5" x1="682.02" y1="1388.29" x2="1902.92" y2="251.66" xlink:href="#New_Gradient_Swatch_1_copy"/><linearGradient id="New_Gradient_Swatch_1_copy-6" x1="708.27" y1="1256.63" x2="257.04" y2="-594.85" xlink:href="#New_Gradient_Swatch_1_copy"/></defs><g id="Layer_2" data-name="Layer 2"><g id="Layer_1-2" data-name="Layer 1"><polygon class="cls-1" points="856.2 640.31 682.12 711.45 755.52 902.91 856.2 640.31"/><polygon class="cls-2" points="1002.2 580.65 804.72 1031.25 965.46 1450.52 965.57 1450.52 1354.21 436.81 1002.2 580.65"/><path class="cls-3" d="M1607.26,295.52l-234.15,37.94L1505.57,42A30.92,30.92,0,0,0,1476.7,0h-220L1034,508Z"/><path class="cls-4" d="M243.08,0H23.45A23.44,23.44,0,0,0,1.57,31.82L276.73,749.54,535.8,666.92Z"/><polygon class="cls-5" points="643.03 911.22 574.63 755.37 0.26 943.52 346.37 931.17 545.47 1450.52 545.58 1450.52 701.38 1044.15 643.03 911.22"/><polygon class="cls-6" points="750.26 1155.52 701.38 1044.15 545.58 1450.52 965.46 1450.52 804.72 1031.25 750.26 1155.52"/><polygon class="cls-7" points="750.26 1155.52 701.38 1044.15 545.58 1450.52 965.46 1450.52 804.72 1031.25 750.26 1155.52"/><polygon class="cls-8" points="755.52 902.91 804.72 1031.25 1002.2 580.65 856.2 640.31 755.52 902.91"/><path class="cls-8" d="M1256.68,0H1122.94a30.92,30.92,0,0,0-28.87,19.85L889.21,554.21,1034,508Z"/><path class="cls-8" d="M651,630.19,415.13,15A23.43,23.43,0,0,0,393.25,0H243.08L535.8,666.92Z"/><polygon class="cls-8" points="682.12 711.45 574.63 755.37 643.03 911.22 701.38 1044.15 755.52 902.91 682.12 711.45"/><polygon class="cls-8" points="701.38 1044.15 750.26 1155.52 804.72 1031.25 755.52 902.91 701.38 1044.15"/></g></g></svg>